<?xml version="1.0" ?><svg height="36" id="svg6390" version="1.1" width="36" xmlns="http://www.w3.org/2000/svg" xmlns:cc="http://creativecommons.org/ns#" xmlns:dc="http://purl.org/dc/elements/1.1/" xmlns:inkscape="http://www.inkscape.org/namespaces/inkscape" xmlns:rdf="http://www.w3.org/1999/02/22-rdf-syntax-ns#" xmlns:sodipodi="http://sodipodi.sourceforge.net/DTD/sodipodi-0.dtd" xmlns:svg="http://www.w3.org/2000/svg"><defs id="defs6392"/><g id="layer1" transform="translate(0,-1016.3622)"><g id="g3" transform="translate(-7,1019.3622)"><path d="m 13.892723,-0.57232285 c -1.2635,1.2656 -1.8826,3.12647995 -1.8926,4.96874995 -0.01,1.84227 0.5914,3.69644 1.9043,4.92774 l 0.6836,-0.72852 c -1.0542,-0.9887 -1.5967,-2.57545 -1.5879,-4.19336 0.01,-1.6179 0.5734,-3.2376699 1.6016,-4.26757995 l -0.709,-0.70703 z m 11.4316,0 -0.709,0.70703 c 1.0282,1.02991005 1.5928,2.64967995 1.6016,4.26757995 0.01,1.61791 -0.5356,3.20466 -1.5898,4.19336 l 0.6855,0.72852 c 1.3129,-1.2313 1.9143,-3.08547 1.9043,-4.92774 -0.01,-1.84227 -0.6291,-3.70314995 -1.8926,-4.96874995 z m -10.0156,1.41602 c -0.9119,0.91207995 -1.3523,2.23628995 -1.3613,3.54491995 -0.01,1.30863 0.4161,2.63135 1.3632,3.51953 l 0.6836,-0.72851 c -0.6878,-0.64502 -1.0543,-1.70104 -1.0468,-2.78516 0.01,-1.08412 0.3913,-2.16663 1.0683,-2.84375 l -0.707,-0.70702995 z m 8.5996,0 -0.707,0.70702995 c 0.677,0.67712 1.0589,1.75963 1.0664,2.84375 0.01,1.08412 -0.3571,2.14014 -1.0449,2.78516 l 0.6835,0.72851 c 0.9473,-0.88818 1.3704,-2.2109 1.3614,-3.51953 -0.01,-1.30863 -0.4475,-2.63284 -1.3594,-3.54491995 z m -7.1836,1.41210995 c -0.5595,0.55952 -0.814,1.35062 -0.8184,2.1289 0,0.77829 0.2451,1.57437 0.8301,2.12305 l 0.6836,-0.73047 c -0.3265,-0.30622 -0.5167,-0.83297 -0.5137,-1.38672 0,-0.55374 0.2036,-1.10386 0.5274,-1.42773 l -0.709,-0.70703 z m 5.7656,0 -0.707,0.70703 c 0.3238,0.32387 0.5243,0.87399 0.5273,1.42773 0,0.55375 -0.1891,1.0805 -0.5156,1.38672 l 0.6856,0.73047 c 0.585,-0.54868 0.8343,-1.34476 0.83,-2.12305 0,-0.77828 -0.2608,-1.56938 -0.8203,-2.1289 z m -2.9902,1.61914 c -0.25,0 -0.5,0.0972 -0.5,0.625 l 0,8.4999999 c 0,1.16666 -0.5,2.16666 -0.5,3 l 0,2 2,0 0,-2 c 0,-0.8336 -0.4991,-1.83192 -0.5,-2.99805 l 0,-0.002 0,-8.4999999 c 0,-0.5278 -0.25,-0.625 -0.5,-0.625 z m -3.543,15.1249999 c -0.2493,0 -0.457,0.20272 -0.457,0.5 l 0,0.42969 21,0 0,-0.42969 c 0,-0.29734 -0.2077,-0.5 -0.457,-0.5 l -20.086,0 z m -1.3945,1.92969 c -0.5956,0 -1.0625,0.46907 -1.0625,1.07226 l 0,3.99805 c 0,0.60318 0.4669,1.07226 1.0625,1.07226 l 22.875,0 c 0.5956,0 1.0625,-0.46908 1.0625,-1.07226 l 0,-3.99805 c 0,-0.60319 -0.4669,-1.07226 -1.0625,-1.07226 l -22.875,0 z m 2.9375,1.07031 c 1.0986,0 2,0.90135 2,2 0,1.09865 -0.9014,2 -2,2 -1.0986,0 -2,-0.90135 -2,-2 0,-1.09865 0.9014,-2 2,-2 z m 0,1 c -0.5582,0 -1,0.44179 -1,1 0,0.55821 0.4418,1 1,1 0.5582,0 1,-0.44179 1,-1 0,-0.55821 -0.4418,-1 -1,-1 z m 4.498,1 0.9961,0 c 0.6762,-0.01 0.6762,1.01 0,1 l -0.9961,0 c -0.6762,0.01 -0.6762,-1.01 0,-1 z m 4.0098,0 0.9942,0 c 0.6762,-0.01 0.6762,1.01 0,1 l -0.9942,0 c -0.6762,0.01 -0.6762,-1.01 0,-1 z m 3,0 0.9942,0 c 0.6762,-0.01 0.6762,1.01 0,1 l -0.9942,0 c -0.6762,0.01 -0.6762,-1.01 0,-1 z m 2.9961,0 0.9941,0 c 0.6762,-0.01 0.6762,1.01 0,1 l -0.9941,0 c -0.6762,0.01 -0.6762,-1.01 0,-1 z m -16.5039,4.07226 0,0.42774 c 0,0.29727 0.2077,0.5 0.457,0.5 l 20.086,0 c 0.2493,0 0.457,-0.20267 0.457,-0.5 l 0,-0.42774 -21,0 z m 2.0039,1.92774 0,0.41992 c -0.05,0.30671 0.1893,0.58406 0.5,0.58008 l 0.9941,0 c 0.3116,0.004 0.5511,-0.2746 0.5,-0.58203 l 0,-0.41797 -0.5,0 -0.9941,0 -0.5,0 z m 15,0 0,0.4082 c -0.058,0.31026 0.1825,0.59593 0.4981,0.5918 l 0.9882,0 c 0.2792,0.004 0.5078,-0.22079 0.5078,-0.5 l 0,-0.5 -0.5,0 -0.998,0 -0.4961,0 z" id="path6862" style="font-size:medium;font-style:normal;font-variant:normal;font-weight:normal;font-stretch:normal;text-indent:0;text-align:start;text-decoration:none;line-height:normal;letter-spacing:normal;word-spacing:normal;text-transform:none;direction:ltr;block-progression:tb;writing-mode:lr-tb;text-anchor:start;baseline-shift:baseline;color:#000000;fill:#6fd92c;fill-opacity:1;fill-rule:nonzero;stroke:none;visibility:visible;display:inline;overflow:visible;enable-background:accumulate;font-family:sans-serif" /></g></g></svg>