<?xml version="1.0" ?><svg height="36" id="svg4488" version="1.1" width="36" xmlns="http://www.w3.org/2000/svg" xmlns:cc="http://creativecommons.org/ns#" xmlns:dc="http://purl.org/dc/elements/1.1/" xmlns:inkscape="http://www.inkscape.org/namespaces/inkscape" xmlns:rdf="http://www.w3.org/1999/02/22-rdf-syntax-ns#" xmlns:sodipodi="http://sodipodi.sourceforge.net/DTD/sodipodi-0.dtd" xmlns:svg="http://www.w3.org/2000/svg"><defs id="defs4490"/><g id="layer1" transform="translate(0,-1016.3622)"><path d="m 3,1021.8622 0,1 2.5,0 c 0.27613,0 0.49997,0.2239 0.5,0.5 l 0,3 0,2 0,2 0,2 0,5 0,4 0,5.5 1,0 0,-0.5 0,-2.8789 0,-0.2363 0,-1.8848 0,-5.8789 0,-0.2363 0,-2.627 0,-2.5137 0,-1.7441 0,-2 0,-2 0,-1 0,-1.5 -1.5,0 -2.5,0 z m 5,3 0,1 1.5,0 c 0.18918,-2e-4 0.36227,0.1064 0.44727,0.2754 0.0348,0.07 0.0529,0.1466 0.0527,0.2246 l 0,2 c -10e-5,0.077 -0.0181,0.1535 -0.0527,0.2227 -0.0845,0.1697 -0.25766,0.2771 -0.44727,0.2773 l -1.5,0 0,1 1.5,0 c 0.18918,-2e-4 0.36227,0.1064 0.44727,0.2754 0.0348,0.07 0.0529,0.1466 0.0527,0.2246 l 0,2 c -10e-5,0.077 -0.0181,0.1535 -0.0527,0.2227 -0.0845,0.1697 -0.25766,0.2771 -0.44727,0.2773 l -1.5,0 0,2 1.49219,0 c 0.67616,-0.01 0.67616,1.0096 0,1 l -1.49219,0 0,1 1.5,0 c 0.27613,0 0.49997,0.2239 0.5,0.5 l 0,4 c -3e-5,0.2761 -0.22387,0.5 -0.5,0.5 l -1.5,0 0,1 1.49219,0 c 0.67616,-0.01 0.67616,1.0096 0,1 l -1.49219,0 0,2 25,0 0,-21 -25,0 z m 4.46485,1 c 0.0117,-4e-4 0.0237,-4e-4 0.0351,0 0.27614,0 0.5,0.2239 0.5,0.5 0,0.2761 -0.22386,0.5 -0.5,0.5 -0.27614,0 -0.5,-0.2239 -0.5,-0.5 -6.5e-4,-0.263 0.20252,-0.4815 0.46485,-0.5 z m 2,0 c 0.0117,-4e-4 0.0237,-4e-4 0.0351,0 0.27614,0 0.5,0.2239 0.5,0.5 0,0.2761 -0.22386,0.5 -0.5,0.5 -0.27614,0 -0.5,-0.2239 -0.5,-0.5 -6.5e-4,-0.263 0.20252,-0.4815 0.46485,-0.5 z m 2,0 c 0.0117,-4e-4 0.0237,-4e-4 0.0351,0 0.27614,0 0.5,0.2239 0.5,0.5 0,0.2761 -0.22386,0.5 -0.5,0.5 -0.27614,0 -0.5,-0.2239 -0.5,-0.5 -6.5e-4,-0.263 0.20252,-0.4815 0.46485,-0.5 z m 2,0 c 0.0117,-4e-4 0.0234,-4e-4 0.0351,0 0.27614,0 0.5,0.2239 0.5,0.5 0,0.2761 -0.22386,0.5 -0.5,0.5 -0.27614,0 -0.5,-0.2239 -0.5,-0.5 -6.5e-4,-0.263 0.20252,-0.4815 0.46485,-0.5 z m 13,0 c 0.0117,-4e-4 0.0234,-4e-4 0.0351,0 0.27614,0 0.5,0.2239 0.5,0.5 0,0.2761 -0.22386,0.5 -0.5,0.5 -0.27614,0 -0.5,-0.2239 -0.5,-0.5 -6.5e-4,-0.263 0.20252,-0.4815 0.46485,-0.5 z m -27.46485,1 0,1 1,0 0,-1 -1,0 z m 4,0 0,1 1,0 0,-1 -1,0 z m 4,1 1,0 0,7 -1,0 0,-7 z m 2,0 1,0 0,7 -1,0 0,-7 z m 2,0 1,0 0,7 -1,0 0,-7 z m 2,0 1,0 0,7 -1,0 0,-7 z m 2,0 11,0 0,1 -11,0 0,-1 z m 0,2 11,0 0,1 -11,0 0,-1 z m -16,1 0,1 1,0 0,-1 -1,0 z m 4,0 0,1 1,0 0,-1 -1,0 z m 18,1 1,0 0,8 -1,0 0,-8 z m 2,0 1,0 0,8 -1,0 0,-8 z m 2,0 1,0 0,6.5449 -1,0 0,-6.5449 z m -9,1.5 3,0 c 0.27613,0 0.49997,0.2239 0.5,0.5 l 0,2 c -3e-5,0.2761 -0.22387,0.5 -0.5,0.5 l -3,0 c -0.27613,0 -0.49997,-0.2239 -0.5,-0.5 l 0,-2 c 3e-5,-0.2761 0.22387,-0.5 0.5,-0.5 z m 0.5,1 0,1 2,0 0,-1 -2,0 z m -18.49414,0.5 0,1 2,0 0,-1 -2,0 z m 9.99414,2 1,0 0,1 1,0 0,-1 1,0 0,1 0.5,0 c 0.0773,10e-5 0.15356,0.018 0.22266,0.053 0.16977,0.084 0.27717,0.2577 0.27734,0.4473 l 0,0.5 1,0 0,1 -1,0 0,1 1,0 0,1 -1,0 0,0.5 c -1.7e-4,0.1896 -0.10757,0.3627 -0.27734,0.4472 -0.0691,0.034 -0.14536,0.053 -0.22266,0.053 l -0.5,0 0,1 -1,0 0,-1 -1,0 0,1 -1,0 0,-1 -0.5,0 c -0.078,2e-4 -0.15491,-0.018 -0.22461,-0.053 -0.16901,-0.085 -0.27559,-0.258 -0.27539,-0.4472 l 0,-0.5 -1,0 0,-1 1,0 0,-1 -1,0 0,-1 1,0 0,-0.5 c -2e-4,-0.1892 0.10638,-0.3623 0.27539,-0.4473 0.0697,-0.035 0.14661,-0.053 0.22461,-0.053 l 0.5,0 0,-1 z m -9,1 0,3 1,0 0,-3 -1,0 z m 4,0 0,3 1,0 0,-3 -1,0 z m 5,1 0,2 0,1 3,0 0,-2 0,-1 -3,0 z m 6.5,1.5 3,0 c 0.27613,0 0.49997,0.2239 0.5,0.5 l 0,2 c -3e-5,0.2761 -0.22387,0.5 -0.5,0.5 l -3,0 c -0.27613,0 -0.49997,-0.2239 -0.5,-0.5 l 0,-2 c 3e-5,-0.2761 0.22387,-0.5 0.5,-0.5 z m 4.5,0 3,0 c 0.27613,0 0.49997,0.2239 0.5,0.5 l 0,2 c -3e-5,0.2761 -0.22387,0.5 -0.5,0.5 l -3,0 c -0.27613,0 -0.49997,-0.2239 -0.5,-0.5 l 0,-2 c 3e-5,-0.2761 0.22387,-0.5 0.5,-0.5 z m 4.5,0 3,0 c 0.27613,0 0.49997,0.2239 0.5,0.5 l 0,2 c -3e-5,0.2761 -0.22387,0.5 -0.5,0.5 l -3,0 c -0.27613,0 -0.49997,-0.2239 -0.5,-0.5 l 0,-2 c 3e-5,-0.2761 0.22387,-0.5 0.5,-0.5 z m -8.5,1 0,1 2,0 0,-1 -2,0 z m 4.5,0 0,1 2,0 0,-1 -2,0 z m 4.5,0 0,1 2,0 0,-1 -2,0 z m -25.99414,1.5 0,1 2,0 0,-1 -2,0 z m 28.45899,1 c 0.0117,-4e-4 0.0234,-4e-4 0.0351,0 0.27614,0 0.5,0.2239 0.5,0.5 0,0.2761 -0.22386,0.5 -0.5,0.5 -0.27614,0 -0.5,-0.2239 -0.5,-0.5 -6.5e-4,-0.263 0.20252,-0.4815 0.46485,-0.5 z" id="rect4443" style="font-size:medium;font-style:normal;font-variant:normal;font-weight:normal;font-stretch:normal;text-indent:0;text-align:start;text-decoration:none;line-height:normal;letter-spacing:normal;word-spacing:normal;text-transform:none;direction:ltr;block-progression:tb;writing-mode:lr-tb;text-anchor:start;baseline-shift:baseline;color:#000000;fill:#6fd92c
;fill-opacity:1;fill-rule:nonzero;stroke:none;visibility:visible;display:inline;overflow:visible;enable-background:accumulate;font-family:sans-serif"/></g></svg>